<?xml version="1.0" encoding="UTF-8" standalone="no"?>
<!-- Created with Inkscape (http://www.inkscape.org/) -->

<svg
   xmlns:dc="http://purl.org/dc/elements/1.1/"
   xmlns:cc="http://creativecommons.org/ns#"
   xmlns:rdf="http://www.w3.org/1999/02/22-rdf-syntax-ns#"
   xmlns:svg="http://www.w3.org/2000/svg"
   xmlns="http://www.w3.org/2000/svg"
   xmlns:sodipodi="http://sodipodi.sourceforge.net/DTD/sodipodi-0.dtd"
   xmlns:inkscape="http://www.inkscape.org/namespaces/inkscape"
   width="210mm"
   height="297mm"
   viewBox="0 0 210 297"
   version="1.1"
   id="svg8"
   inkscape:export-filename="/home/alex/github/next-775mv/public/cart.png"
   inkscape:export-xdpi="150"
   inkscape:export-ydpi="150"
   inkscape:version="0.92.5 (2060ec1f9f, 2020-04-08)"
   sodipodi:docname="cart.svg">
  <defs
     id="defs2" />
  <sodipodi:namedview
     id="base"
     pagecolor="#ffffff"
     bordercolor="#666666"
     borderopacity="1.0"
     inkscape:pageopacity="0.0"
     inkscape:pageshadow="2"
     inkscape:zoom="0.70710678"
     inkscape:cx="387.09315"
     inkscape:cy="1269.8415"
     inkscape:document-units="mm"
     inkscape:current-layer="layer1"
     showgrid="false"
     showborder="false"
     inkscape:pagecheckerboard="true"
     inkscape:window-width="3840"
     inkscape:window-height="2032"
     inkscape:window-x="3424"
     inkscape:window-y="54"
     inkscape:window-maximized="1" />
  <metadata
     id="metadata5">
    <rdf:RDF>
      <cc:Work
         rdf:about="">
        <dc:format>image/svg+xml</dc:format>
        <dc:type
           rdf:resource="http://purl.org/dc/dcmitype/StillImage" />
        <dc:title></dc:title>
      </cc:Work>
    </rdf:RDF>
  </metadata>
  <g
     inkscape:label="Layer 1"
     inkscape:groupmode="layer"
     id="layer1">
    <path
       style="fill:#ffa019;stroke-width:0.26458332;fill-opacity:1"
       d="M 106.28249,105.56184 C 93.95603,104.28988 84.71336,93.49366 85.33741,81.09624 c 0.78823,-15.65897 16.26404,-26.14893 31.06545,-21.05711 3.54547,1.21968 5.97189,2.75813 8.79908,5.57898 2.96025,2.95363 4.60975,5.56041 5.8597,9.26042 0.76982,2.27872 0.85998,2.88428 0.9652,6.48229 0.099,3.38614 0.0345,4.31062 -0.43944,6.29743 -2.73646,11.47122 -13.54335,19.11726 -25.30491,17.90359 z m 144.72709,0 c -9.95979,-1.02775 -18.35518,-8.54441 -20.52889,-18.38019 -0.56629,-2.56249 -0.42836,-8.29908 0.26088,-10.84791 2.70748,-10.01268 11.31922,-16.99546 21.59831,-17.51288 11.42933,-0.57531 21.36965,6.98648 24.11253,18.34293 0.65969,2.73132 0.60502,7.56142 -0.11877,10.49446 -2.84819,11.54163 -13.56352,19.11715 -25.32406,17.90359 z M 85.38779,50.24471 C 72.43786,49.03575 62.0725,44.54918 54.28727,36.78303 47.04123,29.55472 43.11545,20.614 43.13243,11.378529 c 0.0153,-8.3168178 2.99338,-14.7821388 10.03138,-21.777836 3.20648,-3.187208 6.83862,-5.910937 11.3219,-8.490262 1.89177,-1.088374 3.66945,-2.144541 3.9504,-2.347032 0.49334,-0.355573 0.20489,-1.399069 -8.43352,-30.509331 -14.42497,-48.610158 -21.66734,-73.038958 -29.29123,-98.800538 -3.94049,-13.31516 -7.33039,-24.47451 -7.53311,-24.79856 l -0.36859,-0.58918 -21.1042404,-0.0723 -21.1042396,-0.0723 -1.78797,-0.88034 c -3.31525,-1.63231 -5.6587,-4.78733 -6.30958,-8.49468 -0.59233,-3.3739 0.63047,-6.99182 3.25074,-9.61796 1.75572,-1.75967 3.69273,-2.75084 6.10902,-3.12599 1.01701,-0.1579 11.3941796,-0.22834 26.7952396,-0.18187 l 25.1354104,0.0758 1.54614,0.62359 c 3.42952,1.38321 5.93511,4.34111 7.10025,8.38199 0.37608,1.30432 2.67734,9.09853 5.1139,17.32046 2.43655,8.22192 4.54294,15.34723 4.68085,15.83401 l 0.25075,0.88504 127.17906,-0.0913 c 123.28026,-0.0885 127.2222,-0.0763 128.58674,0.39918 3.08898,1.07627 4.15237,3.22186 4.08424,8.24077 -0.0521,3.83587 -0.47382,6.66664 -4.25749,28.575 -7.27212,42.107408 -12.02568,67.307708 -13.51026,71.622728 -1.34668,3.91416 -3.55137,6.39145 -6.75489,7.59004 -1.51482,0.56677 -2.42395,0.72814 -17.29835,3.07035 -5.13787,0.80903 -14.74796,2.35895 -21.35574,3.44425 -6.60781,1.08531 -16.87018,2.745192 -22.80531,3.688644 -5.93513,0.943448 -15.55364,2.497759 -21.37447,3.454021 -5.82083,0.95626 -16.11974,2.622558 -22.88646,3.702887 -6.76672,1.080328 -17.06562,2.745983 -22.88646,3.701457 -5.82083,0.955476 -13.97661,2.274181 -18.12395,2.930453 -13.07262,2.068603 -41.55448,6.7400572 -44.45,7.2904652 -4.48912,0.853334 -10.99592,2.580894 -14.55125,3.863358 -10.54915,3.80525598 -16.09184,8.663279 -16.58315,14.5347318 -0.28615,3.419534 1.15112,7.045595 4.00209,10.096855 4.02984,4.31292 9.58229,6.8232 17.0712,7.71794 1.47669,0.17643 37.07982,0.26787 104.29894,0.26787 74.01772,0 102.44217,0.081 103.45904,0.2949 4.55676,0.95843 7.88255,4.30287 8.70215,8.75099 0.87696,4.75956 -1.65169,9.49735 -6.2094,11.63418 l -1.88442,0.88347 -103.58437,0.0312 C 134.38201,50.45288 86.69748,50.36688 85.38779,50.2446 Z"
       id="path5254"
       inkscape:connector-curvature="0" />
    <path
       style="fill:#000012;stroke:none;stroke-width:3.065;stroke-linecap:butt;stroke-linejoin:round;stroke-opacity:1;stroke-miterlimit:4;stroke-dasharray:none;fill-opacity:0"
       d="m 55.859332,-141.72293 240.275298,0.13364 -15.63526,88.065305 -190.830443,26.326048 z"
       id="path5258"
       inkscape:connector-curvature="0"
       sodipodi:nodetypes="ccccc" />
  </g>
</svg>
